<svg width="24" height="24" viewBox="0 0 24 24" fill="none" xmlns="http://www.w3.org/2000/svg">
<g clip-path="url(#clip0_65_64)">
<path d="M17.3333 6.66634V17.333M12 10.6663V17.333M6.66665 14.6663V17.333M3.99998 22.6663H20C20.7072 22.6663 21.3855 22.3854 21.8856 21.8853C22.3857 21.3852 22.6666 20.7069 22.6666 19.9997V3.99967C22.6666 3.29243 22.3857 2.61415 21.8856 2.11406C21.3855 1.61396 20.7072 1.33301 20 1.33301H3.99998C3.29274 1.33301 2.61446 1.61396 2.11436 2.11406C1.61426 2.61415 1.33331 3.29243 1.33331 3.99967V19.9997C1.33331 20.7069 1.61426 21.3852 2.11436 21.8853C2.61446 22.3854 3.29274 22.6663 3.99998 22.6663Z" stroke="#3157A8" stroke-width="1.6" stroke-linecap="round" stroke-linejoin="round"/>
</g>
<defs>
<clipPath id="clip0_65_64">
<rect width="24" height="24" fill="white"/>
</clipPath>
</defs>
</svg>
